<svg width="12" height="12" viewBox="0 0 12 12" fill="none" xmlns="http://www.w3.org/2000/svg">
<path d="M6 0.3125C4.8751 0.3125 3.77549 0.646076 2.84019 1.27103C1.90488 1.89598 1.17591 2.78425 0.745437 3.82348C0.314963 4.86276 0.202333 6.0063 0.421787 7.10954C0.641237 8.21283 1.18291 9.22626 1.97832 10.0217C2.77373 10.8171 3.78717 11.3588 4.89041 11.5782C5.9937 11.7977 7.13724 11.6851 8.17652 11.2546C9.21576 10.8241 10.104 10.0951 10.729 9.1598C11.3539 8.22451 11.6875 7.1249 11.6875 6C11.6875 4.49159 11.0883 3.04495 10.0217 1.97833C8.95505 0.911718 7.50841 0.3125 6 0.3125ZM6 10.8125C5.04817 10.8125 4.11774 10.5303 3.32631 10.0015C2.5349 9.47266 1.91807 8.72103 1.55383 7.84166C1.18958 6.96228 1.09427 5.99466 1.27996 5.06112C1.46565 4.12759 1.924 3.27008 2.59704 2.59704C3.27008 1.924 4.12759 1.46569 5.06112 1.28C5.99466 1.09431 6.96228 1.18956 7.84166 1.55381C8.72103 1.91805 9.47266 2.53493 10.0015 3.32635C10.5303 4.11774 10.8125 5.04817 10.8125 6C10.8125 7.27636 10.3055 8.50044 9.40296 9.40296C8.50044 10.3055 7.27636 10.8125 6 10.8125ZM6.4375 6.82512H5.5625V2.9979H6.4375V6.82512ZM5.45312 7.90794H6.54688V9.11194H5.45312V7.90794Z" fill="#EA0F0F"/>
</svg>
